<svg width="40" height="38" viewBox="0 0 40 38" fill="none" xmlns="http://www.w3.org/2000/svg">
<path d="M7.01785 0L5.02819 1.98683L7.98866 4.94588L9.97549 2.95905L7.01644 0H7.01785ZM32.9837 0L30.0233 2.95905L32.0115 4.94588L34.9706 1.98825L32.9823 0H32.9837ZM20.0001 0.881781C19.5338 0.887433 19.0618 0.914282 18.587 0.97222C18.5728 0.97222 18.5587 0.969393 18.5446 0.97222C12.813 1.62932 8.25149 6.26008 7.45874 11.9662C6.82567 16.5588 8.71923 20.7233 11.8747 23.4053C13.1655 24.5069 14.0385 26.0185 14.3476 27.6871V36.1657H17.5695C18.0613 37.0093 18.9586 37.5788 20.0001 37.5788C21.0415 37.5788 21.9389 37.0093 22.4306 36.1657H25.6525V30.5133H25.7854V28.8345C25.7854 26.7629 26.8621 24.6743 28.6116 23.0506C30.9517 20.7077 32.7181 17.3798 32.7181 13.5574C32.7181 6.57661 26.9724 0.816777 20.0001 0.881781ZM20.0001 3.708C25.4618 3.63169 29.8919 8.10277 29.8919 13.5574C29.8919 16.5164 28.5211 19.1222 26.6233 21.0186L26.6686 21.0638C24.7826 22.8029 23.5631 25.146 23.2206 27.6885H17.0396C16.7287 25.2664 15.6901 22.9221 13.7273 21.2405C11.2303 19.1208 9.74233 15.9272 10.2397 12.3209C10.8573 7.86961 14.4692 4.2902 18.895 3.79985C19.2604 3.74891 19.6284 3.71871 19.9973 3.70941L20.0001 3.708ZM0.216553 13.5574V16.3836H4.45588V13.5574H0.216553ZM35.5443 13.5574V16.3836H39.7836V13.5574H35.5443ZM7.98866 24.9951L5.0296 27.9527L7.01785 29.941L9.97407 26.9819L7.98866 24.9951ZM32.0115 24.9951L30.0247 26.9819L32.9823 29.941L34.9706 27.9527L32.0115 24.9951ZM17.1739 30.5147H22.8263V33.3409H17.1739V30.5147Z" fill="white"/>
</svg>
